<svg width="150" height="36" viewBox="0 0 150 36" fill="none" xmlns="http://www.w3.org/2000/svg">
<path d="M143.043 13.1723L138.046 15.6393C137.775 15.2377 137.421 14.9223 136.984 14.6929C136.544 14.4549 136.043 14.3299 135.482 14.3181C134.925 14.2938 134.322 14.4178 133.674 14.6899C132.806 15.054 132.151 15.5451 131.709 16.1634C131.264 16.7729 131.168 17.3802 131.422 17.9851C131.624 18.4673 131.988 18.794 132.513 18.9654C133.039 19.1367 133.813 19.1264 134.836 18.9346L138.8 18.1375C140.933 17.717 142.67 17.7516 144.009 18.2413C145.349 18.731 146.324 19.7035 146.934 21.1588C147.489 22.4826 147.586 23.8079 147.225 25.1346C146.873 26.4577 146.14 27.6829 145.025 28.8103C143.915 29.9253 142.484 30.8506 140.73 31.5861C138.056 32.7077 135.693 33.0446 133.639 32.5969C131.59 32.1366 130.025 30.9992 128.944 29.1845L134.333 26.5838C134.841 27.3293 135.506 27.7826 136.326 27.9437C137.143 28.096 138.051 27.9626 139.05 27.5434C140.032 27.1315 140.742 26.612 141.18 25.985C141.623 25.3455 141.722 24.7214 141.477 24.1128C141.255 23.608 140.866 23.2817 140.309 23.1338C139.748 22.9772 138.993 22.9951 138.042 23.1875L134.252 23.9579C132.114 24.3908 130.359 24.323 128.986 23.7544C127.622 23.1821 126.624 22.142 125.992 20.6341C125.447 19.3366 125.329 18.0717 125.637 16.8394C125.954 15.6035 126.645 14.4628 127.712 13.4174C128.787 12.3683 130.189 11.4816 131.916 10.7571C134.467 9.68693 136.701 9.38394 138.617 9.84813C140.542 10.3086 142.017 11.4167 143.043 13.1723Z" fill="black"/>
<path d="M111.985 31.1178L114.828 9.39897L120.668 10.1635L120.172 13.953L120.398 13.9826C120.971 12.6864 121.769 11.7553 122.792 11.1894C123.816 10.614 124.937 10.4059 126.153 10.5651C126.454 10.6046 126.777 10.666 127.121 10.7494C127.465 10.8327 127.764 10.9247 128.02 11.0252L127.32 16.3701C127.048 16.2482 126.667 16.1216 126.176 15.9902C125.685 15.8588 125.232 15.766 124.817 15.7117C123.931 15.5957 123.114 15.6853 122.366 15.9804C121.629 16.2674 121.013 16.7237 120.518 17.3494C120.034 17.9762 119.733 18.7327 119.617 19.6188L118.009 31.9064L111.985 31.1178Z" fill="black"/>
<path d="M103.899 32.2201C101.687 32.6473 99.696 32.567 97.9268 31.9791C96.165 31.3801 94.6952 30.3374 93.5174 28.851C92.3378 27.3553 91.529 25.4733 91.0909 23.205C90.6637 20.9927 90.7182 18.9682 91.2543 17.1314C91.7904 15.2947 92.7478 13.7591 94.1264 12.5246C95.5144 11.2883 97.2632 10.4665 99.3728 10.0591C100.792 9.78515 102.157 9.75879 103.468 9.98005C104.786 10.1902 105.991 10.6596 107.08 11.3884C108.179 12.1154 109.118 13.1155 109.896 14.3885C110.673 15.6522 111.238 17.1989 111.591 19.0284L111.907 20.6667L93.747 24.1735L93.0332 20.477L105.579 18.0544C105.413 17.1956 105.079 16.4709 104.578 15.8802C104.077 15.2896 103.459 14.8716 102.724 14.6262C101.996 14.3696 101.199 14.3252 100.331 14.4928C99.4252 14.6677 98.663 15.0327 98.044 15.5879C97.4325 16.1321 96.9984 16.792 96.7415 17.5678C96.4828 18.3343 96.4309 19.1431 96.5856 19.9944L97.2642 23.5088C97.4697 24.573 97.8433 25.4546 98.3849 26.1537C98.9359 26.8509 99.616 27.3393 100.425 27.6187C101.234 27.8982 102.138 27.9415 103.137 27.7486C103.8 27.6206 104.389 27.4101 104.903 27.1171C105.418 26.824 105.835 26.453 106.155 26.0039C106.475 25.5548 106.686 25.0397 106.787 24.4587L112.374 23.7574C112.35 25.137 111.999 26.4053 111.322 27.5624C110.652 28.7084 109.689 29.6883 108.433 30.5022C107.184 31.305 105.673 31.8776 103.899 32.2201Z" fill="black"/>
<path d="M76.815 25.5166L77.1928 18.2392L78.0759 18.2833L85.4981 10.3299L92.4628 10.6778L82.4991 21.2029L81.0606 21.131L76.815 25.5166ZM71.0028 31.5372L72.46 2.36804L78.5274 2.67114L77.0703 31.8403L71.0028 31.5372ZM84.6759 32.2203L78.7142 22.3703L82.9733 18.2852L91.783 32.5753L84.6759 32.2203Z" fill="black"/>
<path d="M55.0981 19.7757L56.2264 32.3887L50.1756 32.93L48.2239 11.1129L53.9906 10.5971L54.335 14.4463L54.5907 14.4234C54.9601 13.1113 55.6799 12.0352 56.7501 11.1949C57.8195 10.3452 59.1638 9.84794 60.7831 9.70309C62.2981 9.56755 63.6487 9.78081 64.8349 10.3428C66.021 10.9049 66.9816 11.7735 67.7167 12.9485C68.4509 14.1142 68.8939 15.5445 69.0455 17.2395L70.2882 31.1308L64.2373 31.6721L63.0912 18.8602C62.9813 17.5242 62.5472 16.5131 61.789 15.8269C61.03 15.1312 60.0445 14.8375 58.8324 14.946C58.0181 15.0188 57.3141 15.2584 56.7204 15.6646C56.1363 16.0701 55.6991 16.6246 55.4089 17.3283C55.1273 18.0216 55.0237 18.8374 55.0981 19.7757Z" fill="black"/>
<path d="M34.3673 32.2319C32.2051 31.7504 30.4375 30.8747 29.0646 29.6047C27.7029 28.3275 26.7791 26.768 26.2932 24.9261C25.8094 23.0749 25.8113 21.0543 26.2989 18.8643C26.7907 16.6557 27.6474 14.8206 28.869 13.3589C30.0926 11.8879 31.5908 10.8677 33.3637 10.2982C35.1479 9.72156 37.1211 9.67395 39.2832 10.1554C41.4454 10.6369 43.2073 11.5162 44.569 12.7934C45.9419 14.0634 46.8704 15.624 47.3542 17.4751C47.8401 19.317 47.8372 21.3423 47.3454 23.5509C46.8577 25.7409 46.0021 27.5714 44.7784 29.0423C43.5569 30.504 42.054 31.5232 40.2698 32.0999C38.497 32.6694 36.5295 32.7134 34.3673 32.2319ZM35.418 27.6446C36.4016 27.8637 37.2849 27.7682 38.0677 27.3581C38.8526 26.9387 39.5206 26.2791 40.0717 25.3791C40.632 24.4812 41.0506 23.4105 41.3275 22.167C41.6044 20.9235 41.6796 19.7763 41.5533 18.7255C41.4362 17.6768 41.1112 16.796 40.5784 16.0832C40.0456 15.3704 39.2874 14.9045 38.3037 14.6855C37.3108 14.4644 36.4126 14.5614 35.6091 14.9767C34.8149 15.3939 34.1377 16.0515 33.5773 16.9495C33.0263 17.8494 32.6123 18.9212 32.3354 20.1647C32.0585 21.4081 31.9786 22.5543 32.0957 23.603C32.2221 24.6539 32.5563 25.5367 33.0984 26.2515C33.6519 26.9592 34.4251 27.4235 35.418 27.6446Z" fill="black"/>
<path d="M5.96178 33.9887L0.274414 5.34229L11.7442 3.06512C13.8516 2.64671 15.6714 2.61012 17.2035 2.95534C18.7357 3.30056 19.9662 3.95766 20.8952 4.92663C21.8224 5.88628 22.4285 7.08413 22.7136 8.52019C22.9358 9.63919 22.9073 10.6674 22.6282 11.6049C22.3472 12.533 21.8688 13.3452 21.1928 14.0416C20.5244 14.7268 19.7135 15.2803 18.7602 15.7022L18.8157 15.982C19.916 15.812 20.9982 15.917 22.0622 16.297C23.1357 16.6751 24.0726 17.3178 24.873 18.2251C25.6716 19.123 26.2107 20.276 26.4903 21.6841C26.792 23.2041 26.6837 24.6358 26.1654 25.9794C25.6545 27.3118 24.7356 28.4683 23.4085 29.449C22.0815 30.4298 20.3456 31.133 18.2009 31.5588L5.96178 33.9887ZM11.0353 27.8347L15.9729 26.8544C17.6607 26.5193 18.8278 25.9532 19.474 25.1561C20.1184 24.3497 20.3332 23.4057 20.1184 22.324C19.9611 21.5313 19.631 20.8699 19.1284 20.3397C18.6257 19.8095 17.9858 19.4422 17.2086 19.2379C16.4407 19.0317 15.5719 19.0249 14.6021 19.2174L9.5246 20.2255L11.0353 27.8347ZM8.71093 16.1271L13.2009 15.2357C14.0308 15.0709 14.7388 14.7801 15.3249 14.3633C15.9184 13.9353 16.3479 13.4139 16.6136 12.799C16.8885 12.1822 16.951 11.4962 16.801 10.7409C16.5955 9.70578 16.0615 8.94431 15.1989 8.45647C14.3457 7.96677 13.2477 7.85522 11.9049 8.12182L7.30297 9.03546L8.71093 16.1271Z" fill="black"/>
</svg>
